<svg xmlns="http://www.w3.org/2000/svg" viewBox="0 0 41 41" shape-rendering="crispEdges"><path fill="#FFFFFF" d="M0 0h41v41H0z"/><path stroke="#1A2E4A" d="M2 2.5h7m2 0h2m1 0h1m2 0h2m1 0h1m1 0h2m2 0h5m1 0h7M2 3.5h1m5 0h1m1 0h1m1 0h1m1 0h4m1 0h1m3 0h2m1 0h1m3 0h1m1 0h1m5 0h1M2 4.5h1m1 0h3m1 0h1m2 0h1m1 0h4m1 0h3m5 0h1m3 0h1m1 0h1m1 0h3m1 0h1M2 5.5h1m1 0h3m1 0h1m2 0h1m4 0h5m1 0h2m1 0h2m1 0h3m1 0h1m1 0h3m1 0h1M2 6.5h1m1 0h3m1 0h1m2 0h2m1 0h1m2 0h7m1 0h1m1 0h3m2 0h1m1 0h3m1 0h1M2 7.5h1m5 0h1m1 0h1m1 0h1m1 0h1m2 0h1m3 0h2m1 0h1m2 0h2m1 0h1m1 0h1m5 0h1M2 8.5h7m1 0h1m1 0h1m1 0h1m1 0h1m1 0h1m1 0h1m1 0h1m1 0h1m1 0h1m1 0h1m1 0h1m1 0h7M10 9.5h1m1 0h4m2 0h2m1 0h1m6 0h1M6 10.5h4m3 0h1m2 0h2m2 0h2m3 0h5m2 0h2m3 0h1M2 11.5h4m4 0h1m1 0h2m3 0h1m1 0h1m1 0h1m1 0h2m1 0h1m3 0h1m3 0h1M2 12.5h2m1 0h4m1 0h1m1 0h1m2 0h1m2 0h1m1 0h1m1 0h1m1 0h2m1 0h2m1 0h2m1 0h1m1 0h1M4 13.5h1m1 0h1m3 0h2m3 0h4m1 0h2m1 0h3m2 0h1m2 0h1m2 0h1m1 0h1M5 14.5h5m2 0h2m2 0h1m4 0h6m2 0h1m1 0h2m3 0h1m1 0h1M2 15.5h2m2 0h1m2 0h3m1 0h3m2 0h1m1 0h1m1 0h1m2 0h1m1 0h5m1 0h2m1 0h1M3 16.5h3m2 0h6m1 0h3m1 0h3m1 0h2m3 0h2m2 0h5M2 17.5h1m2 0h3m2 0h1m2 0h1m1 0h1m1 0h1m1 0h2m1 0h2m1 0h2m1 0h1m3 0h1m3 0h2M2 18.5h2m1 0h1m2 0h1m2 0h2m1 0h1m1 0h2m1 0h2m2 0h3m1 0h1m3 0h3m1 0h2m1 0h1M2 19.5h2m1 0h1m1 0h1m2 0h9m2 0h2m1 0h2m1 0h2m1 0h2m1 0h2M2 20.5h3m3 0h1m3 0h1m2 0h3m2 0h7m1 0h2m3 0h1m2 0h1M2 21.5h2m2 0h2m2 0h1m1 0h1m1 0h1m1 0h2m5 0h4m1 0h1m2 0h1m1 0h1m2 0h1m1 0h1M2 22.5h2m1 0h7m1 0h2m2 0h2m3 0h6m1 0h1m1 0h2m3 0h3M3 23.5h2m1 0h2m2 0h1m1 0h1m2 0h1m2 0h1m1 0h1m3 0h2m2 0h2m1 0h2m1 0h1m1 0h2M6 24.5h3m2 0h1m2 0h1m3 0h2m1 0h2m2 0h1m1 0h4m4 0h2M2 25.5h1m2 0h1m1 0h1m4 0h4m1 0h2m1 0h2m1 0h2m1 0h2m2 0h1m2 0h1m2 0h1m1 0h1M3 26.5h1m2 0h1m1 0h1m1 0h3m1 0h1m2 0h1m3 0h7m1 0h1m1 0h3m1 0h1m1 0h1M2 27.5h1m4 0h1m2 0h1m1 0h1m2 0h3m2 0h1m1 0h2m3 0h2m2 0h1m2 0h2m1 0h1M6 28.5h3m1 0h1m5 0h4m3 0h1m3 0h3m1 0h1m2 0h1m1 0h1M4 29.5h4m2 0h3m2 0h2m3 0h1m1 0h2m2 0h1m1 0h1m3 0h2m2 0h1M2 30.5h5m1 0h1m3 0h1m3 0h2m1 0h1m1 0h1m3 0h2m1 0h1m1 0h7m1 0h1M10 31.5h1m1 0h6m3 0h1m1 0h1m1 0h2m1 0h3m3 0h2m1 0h1M2 32.5h7m1 0h3m1 0h1m1 0h2m4 0h1m1 0h4m2 0h1m1 0h1m1 0h3M2 33.5h1m5 0h1m1 0h2m2 0h1m1 0h2m1 0h1m2 0h5m3 0h1m3 0h1m1 0h3M2 34.5h1m1 0h3m1 0h1m1 0h3m3 0h1m1 0h3m3 0h2m1 0h1m2 0h8M2 35.5h1m1 0h3m1 0h1m7 0h2m1 0h3m2 0h1m1 0h5m1 0h1m2 0h1M2 36.5h1m1 0h3m1 0h1m2 0h1m1 0h1m1 0h4m4 0h1m1 0h3m2 0h1m1 0h1m4 0h1M2 37.5h1m5 0h1m3 0h1m1 0h1m2 0h1m1 0h2m1 0h1m2 0h1m3 0h1m1 0h1m4 0h2M2 38.5h7m3 0h1m1 0h1m1 0h7m3 0h2m5 0h1m2 0h3"/><circle cx="20.5" cy="20.5" r="5.0102" fill="#FFFFFF" stroke="#E07B00" stroke-width="0.533"/>
  <g transform="translate(17.7284 17.7284) scale(0.043306250000000004)"><path d="M50.4 78.5a75.1 75.1 0 0 0-28.5 6.9l24.2-65.7c.7-2 1.9-3.2 3.4-3.2h29c1.5 0 2.7 1.2 3.4 3.2l24.2 65.7s-11.6-7-28.5-7L67 45.5c-.4-1.7-1.6-2.8-2.9-2.8-1.3 0-2.5 1.1-2.9 2.7L50.4 78.5Zm-1.1 28.2Zm-4.2-20.2c-2 6.6-.6 15.8 4.2 20.2a17.5 17.5 0 0 1 .2-.7 5.5 5.5 0 0 1 5.7-4.5c2.8.1 4.3 1.5 4.7 4.7.2 1.1.2 2.3.2 3.5v.4c0 2.7.7 5.2 2.2 7.4a13 13 0 0 0 5.7 4.9v-.3l-.2-.3c-1.8-5.6-.5-9.5 4.4-12.8l1.5-1a73 73 0 0 0 3.2-2.2 16 16 0 0 0 6.8-11.4c.3-2 .1-4-.6-6l-.8.6-1.6 1a37 37 0 0 1-22.4 2.7c-5-.7-9.7-2-13.2-6.2Z" fill="#1A2E4A"/></g></svg>